<svg xmlns="http://www.w3.org/2000/svg" version="1.1" xmlns:xlink="http://www.w3.org/1999/xlink" xmlns:svgjs="http://svgjs.dev/svgjs" width="2000" height="1247" viewBox="0 0 2000 1247"><g transform="matrix(1,0,0,1,-1.2121212121212466,0.504858299595071)"><svg viewBox="0 0 396 247" data-background-color="#ffffff" preserveAspectRatio="xMidYMid meet" height="1247" width="2000" xmlns="http://www.w3.org/2000/svg" xmlns:xlink="http://www.w3.org/1999/xlink"><g id="tight-bounds" transform="matrix(1,0,0,1,0.2400000000000091,-0.09999999999999432)"><svg viewBox="0 0 395.52 247.2" height="247.2" width="395.52"><g><svg></svg></g><g><svg viewBox="0 0 395.52 247.2" height="247.2" width="395.52"><g transform="matrix(1,0,0,1,75.54432,81.95123776457274)"><svg viewBox="0 0 244.43135999999998 83.2975244708545" height="83.2975244708545" width="244.43135999999998"><g><svg viewBox="0 0 419.3965505958947 142.92230929882936" height="83.2975244708545" width="244.43135999999998"><g transform="matrix(1,0,0,1,173.74303379589475,0)"><svg viewBox="0 0 245.65351679999995 142.92230929882936" height="142.92230929882936" width="245.65351679999995"><g id="textblocktransform"><svg viewBox="0 0 245.65351679999995 142.92230929882936" height="142.92230929882936" width="245.65351679999995" id="textblock"><g><rect width="245.65351679999995" height="8.376939277955008" x="0" y="102.75837961797926" fill="#0080ff" opacity="1" stroke-width="0" stroke="transparent" fill-opacity="1" class="rect-qz-0" data-fill-palette-color="primary" rx="1%" id="qz-0" data-palette-color="#0080ff"></rect></g><g transform="matrix(1,0,0,1,0.6110783999999825,0)"><svg viewBox="0 0 244.43135999999998 92.8902574319066" height="92.8902574319066" width="244.43135999999998"><g transform="matrix(1,0,0,1,0,0)"><svg width="244.43135999999998" viewBox="4.85 -36.23 96.37 36.629999999999995" height="92.8902574319066" data-palette-color="#0080ff"><path d="M15.43-13.4L9.68-13.4 9.68 0 4.85 0 4.85-35.83 15.43-35.83Q18.82-35.83 21.34-35.04 23.85-34.25 25.5-32.8 27.15-31.35 27.96-29.3 28.78-27.25 28.78-24.73L28.78-24.73Q28.78-22.23 27.9-20.15 27.03-18.07 25.34-16.57 23.65-15.08 21.15-14.24 18.65-13.4 15.43-13.4L15.43-13.4ZM9.68-32L9.68-17.25 15.43-17.25Q17.5-17.25 19.09-17.8 20.68-18.35 21.75-19.34 22.83-20.33 23.38-21.7 23.93-23.08 23.93-24.73L23.93-24.73Q23.93-28.15 21.81-30.08 19.7-32 15.43-32L15.43-32 9.68-32ZM52.52-12.95L52.52-12.95Q52.87-12.35 53.14-11.69 53.4-11.03 53.65-10.35L53.65-10.35Q53.9-11.05 54.17-11.69 54.45-12.33 54.8-12.98L54.8-12.98 66.92-35Q67.25-35.58 67.6-35.7 67.95-35.83 68.6-35.83L68.6-35.83 72.17-35.83 72.17 0 67.92 0 67.92-26.33Q67.92-26.85 67.95-27.45 67.97-28.05 68.02-28.68L68.02-28.68 55.75-6.28Q55.12-5.15 54-5.15L54-5.15 53.3-5.15Q52.17-5.15 51.55-6.28L51.55-6.28 39-28.75Q39.07-28.1 39.11-27.48 39.15-26.85 39.15-26.33L39.15-26.33 39.15 0 34.9 0 34.9-35.83 38.47-35.83Q39.12-35.83 39.47-35.7 39.82-35.58 40.15-35L40.15-35 52.52-12.95ZM100.42-32.52L99.25-30.23Q99.02-29.85 98.77-29.66 98.52-29.48 98.12-29.48L98.12-29.48Q97.7-29.48 97.13-29.9 96.57-30.33 95.71-30.84 94.84-31.35 93.63-31.78 92.42-32.2 90.7-32.2L90.7-32.2Q89.07-32.2 87.82-31.76 86.57-31.33 85.73-30.58 84.89-29.83 84.47-28.81 84.05-27.8 84.05-26.63L84.05-26.63Q84.05-25.13 84.78-24.14 85.52-23.15 86.73-22.45 87.95-21.75 89.48-21.24 91.02-20.73 92.63-20.18 94.25-19.63 95.78-18.94 97.32-18.25 98.53-17.2 99.75-16.15 100.48-14.63 101.22-13.1 101.22-10.88L101.22-10.88Q101.22-8.53 100.42-6.46 99.62-4.4 98.08-2.88 96.55-1.35 94.31-0.48 92.07 0.4 89.22 0.4L89.22 0.4Q85.75 0.4 82.88-0.86 80.02-2.13 78-4.28L78-4.28 79.39-6.58Q79.59-6.85 79.88-7.04 80.17-7.23 80.52-7.23L80.52-7.23Q81.05-7.23 81.72-6.66 82.39-6.1 83.41-5.43 84.42-4.75 85.86-4.19 87.3-3.63 89.37-3.63L89.37-3.63Q91.09-3.63 92.45-4.1 93.8-4.58 94.73-5.44 95.67-6.3 96.17-7.5 96.67-8.7 96.67-10.18L96.67-10.18Q96.67-11.8 95.93-12.84 95.2-13.88 94-14.58 92.8-15.28 91.26-15.76 89.72-16.25 88.11-16.76 86.5-17.28 84.96-17.95 83.42-18.63 82.22-19.7 81.02-20.78 80.28-22.39 79.55-24 79.55-26.38L79.55-26.38Q79.55-28.28 80.28-30.05 81.02-31.83 82.42-33.2 83.82-34.58 85.88-35.4 87.95-36.23 90.62-36.23L90.62-36.23Q93.62-36.23 96.09-35.27 98.57-34.33 100.42-32.52L100.42-32.52Z" opacity="1" transform="matrix(1,0,0,1,0,0)" fill="#0080ff" class="wordmark-text-0" data-fill-palette-color="primary" id="text-0"></path></svg></g></svg></g><g transform="matrix(1,0,0,1,0,121.00344108200692)"><svg viewBox="0 0 232.20979199999996 21.91886821682243" height="21.91886821682243" width="232.20979199999996"><g transform="matrix(1,0,0,1,0,0)"><svg width="232.20979199999996" viewBox="3 -39.65 534.94 50.5" height="21.91886821682243" data-palette-color="#0080ff"><path d="M10.9-34.55Q17.15-34.55 20.43-31.78 23.7-29 23.7-23.6L23.7-23.6Q23.7-17.85 20.48-15 17.25-12.15 11.35-12.15L11.35-12.15 9.35-12.15 9.35 0 3 0 3-34.55 10.9-34.55ZM11-16.9Q14.25-16.9 15.7-18.4 17.15-19.9 17.15-23.55L17.15-23.55Q17.15-26.85 15.7-28.35 14.25-29.85 11.05-29.85L11.05-29.85 9.35-29.85 9.35-16.9 11-16.9ZM38.95-27.1Q40.1-27.1 41-26.75L41-26.75 40-20.85Q39-21.1 38.15-21.1L38.15-21.1Q36.25-21.1 35.15-19.45 34.05-17.8 33.45-14.55L33.45-14.55 33.45 0 27.3 0 27.3-26.45 32.65-26.45 33.1-21.85Q34.95-27.1 38.95-27.1L38.95-27.1ZM53.25-27.15Q58.25-27.15 61.02-23.65 63.8-20.15 63.8-13.25L63.8-13.25Q63.8-6.65 61-2.95 58.2 0.75 53.25 0.75L53.25 0.75Q48.3 0.75 45.5-2.88 42.7-6.5 42.7-13.25L42.7-13.25Q42.7-19.95 45.5-23.55 48.3-27.15 53.25-27.15L53.25-27.15ZM53.25-22.5Q51.1-22.5 50.1-20.38 49.1-18.25 49.1-13.25L49.1-13.25Q49.1-8.2 50.1-6.08 51.1-3.95 53.25-3.95L53.25-3.95Q55.4-3.95 56.4-6.08 57.4-8.2 57.4-13.25L57.4-13.25Q57.4-18.3 56.4-20.4 55.4-22.5 53.25-22.5L53.25-22.5ZM74.49-26.45L74.49-1.25Q74.49 2.1 73.47 4.35 72.44 6.6 70.62 8.05 68.79 9.5 65.99 10.8L65.99 10.8 63.89 6.4Q65.49 5.45 66.42 4.6 67.34 3.75 67.84 2.38 68.34 1 68.34-1.2L68.34-1.2 68.34-26.45 74.49-26.45ZM71.39-39.65Q73.04-39.65 74.07-38.6 75.09-37.55 75.09-35.9L75.09-35.9Q75.09-34.3 74.07-33.25 73.04-32.2 71.39-32.2L71.39-32.2Q69.74-32.2 68.72-33.25 67.69-34.3 67.69-35.9L67.69-35.9Q67.69-37.55 68.72-38.6 69.74-39.65 71.39-39.65L71.39-39.65ZM99.04-13.85Q99.04-13.4 98.89-11.3L98.89-11.3 85.24-11.3Q85.44-7.2 86.67-5.58 87.89-3.95 90.14-3.95L90.14-3.95Q91.69-3.95 92.94-4.48 94.19-5 95.64-6.15L95.64-6.15 98.19-2.65Q94.69 0.75 89.79 0.75L89.79 0.75Q84.59 0.75 81.81-2.85 79.04-6.45 79.04-13L79.04-13Q79.04-19.55 81.69-23.35 84.34-27.15 89.19-27.15L89.19-27.15Q93.84-27.15 96.44-23.78 99.04-20.4 99.04-13.85L99.04-13.85ZM93.04-15.3L93.04-15.65Q93.04-19.4 92.14-21.13 91.24-22.85 89.24-22.85L89.24-22.85Q87.39-22.85 86.42-21.18 85.44-19.5 85.24-15.3L85.24-15.3 93.04-15.3ZM112.84-27.15Q114.99-27.15 116.74-26.43 118.49-25.7 120.09-24.15L120.09-24.15 117.44-20.65Q116.34-21.55 115.36-21.98 114.39-22.4 113.24-22.4L113.24-22.4Q110.99-22.4 109.84-20.28 108.69-18.15 108.69-13.1L108.69-13.1Q108.69-8.2 109.86-6.2 111.04-4.2 113.24-4.2L113.24-4.2Q114.34-4.2 115.24-4.6 116.14-5 117.34-5.85L117.34-5.85 120.09-2.3Q116.89 0.75 112.94 0.75L112.94 0.75Q107.84 0.75 105.01-2.73 102.19-6.2 102.19-13L102.19-13Q102.19-17.4 103.49-20.6 104.79-23.8 107.21-25.48 109.64-27.15 112.84-27.15L112.84-27.15ZM134.29-5L136.44-1.2Q133.99 0.75 130.69 0.75L130.69 0.75Q127.24 0.75 125.44-1.23 123.64-3.2 123.64-6.6L123.64-6.6 123.64-22 120.54-22 120.54-26.45 123.64-26.45 123.64-32.3 129.79-33.05 129.79-26.45 134.79-26.45 134.19-22 129.79-22 129.79-6.6Q129.79-4.2 131.84-4.2L131.84-4.2Q132.49-4.2 132.99-4.38 133.49-4.55 134.29-5L134.29-5ZM175.03-34.55L177.23 0 171.18 0 170.58-14.6Q170.28-22.6 170.28-26L170.28-26 170.33-28.6 165.58-3.8 159.58-3.8 154.63-28.65Q154.68-27.15 154.68-24.05L154.68-24.05Q154.68-18.8 154.48-14.4L154.48-14.4 153.93 0 147.98 0 150.18-34.55 158.18-34.55 162.68-10.2 166.88-34.55 175.03-34.55ZM198.93-6.4Q198.93-5.1 199.28-4.48 199.63-3.85 200.43-3.45L200.43-3.45 199.18 0.65Q197.13 0.4 195.9-0.45 194.68-1.3 194.08-3.05L194.08-3.05Q191.78 0.75 187.63 0.75L187.63 0.75Q184.33 0.75 182.38-1.48 180.43-3.7 180.43-7.4L180.43-7.4Q180.43-11.7 183.1-13.95 185.78-16.2 190.88-16.2L190.88-16.2 192.93-16.2 192.93-18.05Q192.93-20.55 192.05-21.58 191.18-22.6 189.23-22.6L189.23-22.6Q186.88-22.6 183.38-21.3L183.38-21.3 181.98-25.3Q183.98-26.2 186.13-26.68 188.28-27.15 190.23-27.15L190.23-27.15Q198.93-27.15 198.93-18.35L198.93-18.35 198.93-6.4ZM189.28-3.7Q191.68-3.7 192.93-7L192.93-7 192.93-12.55 191.48-12.55Q188.93-12.55 187.75-11.4 186.58-10.25 186.58-7.85L186.58-7.85Q186.58-5.8 187.28-4.75 187.98-3.7 189.28-3.7L189.28-3.7ZM217.07-27.15Q219.93-27.15 221.57-25.1 223.22-23.05 223.22-19.6L223.22-19.6 223.22 0 217.07 0 217.07-18.9Q217.07-20.8 216.55-21.63 216.03-22.45 215.03-22.45L215.03-22.45Q212.93-22.45 210.88-18.5L210.88-18.5 210.88 0 204.72 0 204.72-26.45 210.07-26.45 210.53-23Q211.88-25.1 213.4-26.13 214.93-27.15 217.07-27.15L217.07-27.15ZM245.67-6.4Q245.67-5.1 246.02-4.48 246.37-3.85 247.17-3.45L247.17-3.45 245.92 0.65Q243.87 0.4 242.65-0.45 241.42-1.3 240.82-3.05L240.82-3.05Q238.52 0.75 234.37 0.75L234.37 0.75Q231.07 0.75 229.12-1.48 227.17-3.7 227.17-7.4L227.17-7.4Q227.17-11.7 229.85-13.95 232.52-16.2 237.62-16.2L237.62-16.2 239.67-16.2 239.67-18.05Q239.67-20.55 238.8-21.58 237.92-22.6 235.97-22.6L235.97-22.6Q233.62-22.6 230.12-21.3L230.12-21.3 228.72-25.3Q230.72-26.2 232.87-26.68 235.02-27.15 236.97-27.15L236.97-27.15Q245.67-27.15 245.67-18.35L245.67-18.35 245.67-6.4ZM236.02-3.7Q238.42-3.7 239.67-7L239.67-7 239.67-12.55 238.22-12.55Q235.67-12.55 234.5-11.4 233.32-10.25 233.32-7.85L233.32-7.85Q233.32-5.8 234.02-4.75 234.72-3.7 236.02-3.7L236.02-3.7ZM269.42-29.85L270.97-25.1Q269.92-24.6 268.44-24.4 266.97-24.2 264.77-24.2L264.77-24.2Q266.87-23.2 267.89-21.53 268.92-19.85 268.92-17.4L268.92-17.4Q268.92-13.4 266.47-10.95 264.02-8.5 259.82-8.5L259.82-8.5Q258.57-8.5 257.27-8.9L257.27-8.9Q256.37-8.15 256.37-6.85L256.37-6.85Q256.37-5.85 256.92-5.35 257.47-4.85 258.97-4.85L258.97-4.85 261.77-4.85Q265.77-4.85 268.12-2.78 270.47-0.7 270.47 2.5L270.47 2.5Q270.47 6.3 267.55 8.58 264.62 10.85 259.22 10.85L259.22 10.85Q253.52 10.85 251.25 8.75 248.97 6.65 248.97 2.6L248.97 2.6 254.42 2.6Q254.42 4.75 255.42 5.65 256.42 6.55 259.27 6.55L259.27 6.55Q262.02 6.55 263.17 5.6 264.32 4.65 264.32 2.9L264.32 2.9Q264.32 1.2 263.37 0.4 262.42-0.4 260.42-0.4L260.42-0.4 258.52-0.4Q254.72-0.4 252.97-1.75 251.22-3.1 251.22-5.45L251.22-5.45Q251.22-6.8 251.94-8.03 252.67-9.25 253.92-10.2L253.92-10.2Q251.87-11.5 250.92-13.3 249.97-15.1 249.97-17.7L249.97-17.7Q249.97-22.05 252.57-24.58 255.17-27.1 259.57-27.1L259.57-27.1Q262.82-27.1 264.94-27.8 267.07-28.5 269.42-29.85L269.42-29.85ZM259.57-23Q257.82-23 256.92-21.75 256.02-20.5 256.02-17.8L256.02-17.8Q256.02-15.25 256.92-13.88 257.82-12.5 259.52-12.5L259.52-12.5Q261.27-12.5 262.12-13.73 262.97-14.95 262.97-17.85L262.97-17.85Q262.97-20.55 262.14-21.78 261.32-23 259.57-23L259.57-23ZM292.57-13.85Q292.57-13.4 292.42-11.3L292.42-11.3 278.77-11.3Q278.97-7.2 280.19-5.58 281.42-3.95 283.67-3.95L283.67-3.95Q285.22-3.95 286.47-4.48 287.72-5 289.17-6.15L289.17-6.15 291.72-2.65Q288.22 0.75 283.32 0.75L283.32 0.75Q278.12 0.75 275.34-2.85 272.57-6.45 272.57-13L272.57-13Q272.57-19.55 275.22-23.35 277.87-27.15 282.72-27.15L282.72-27.15Q287.37-27.15 289.97-23.78 292.57-20.4 292.57-13.85L292.57-13.85ZM286.57-15.3L286.57-15.65Q286.57-19.4 285.67-21.13 284.77-22.85 282.77-22.85L282.77-22.85Q280.92-22.85 279.94-21.18 278.97-19.5 278.77-15.3L278.77-15.3 286.57-15.3ZM320.51-27.15Q323.16-27.15 324.76-25.1 326.37-23.05 326.37-19.6L326.37-19.6 326.37 0 320.31 0 320.31-18.95Q320.31-20.85 319.81-21.68 319.31-22.5 318.37-22.5L318.37-22.5Q316.41-22.5 314.62-18.8L314.62-18.8 314.62 0 308.62 0 308.62-18.95Q308.62-22.5 306.71-22.5L306.71-22.5Q304.66-22.5 302.91-18.8L302.91-18.8 302.91 0 296.87 0 296.87-26.45 302.21-26.45 302.62-23.05Q305.21-27.15 308.87-27.15L308.87-27.15Q310.71-27.15 312.06-26 313.41-24.85 314.12-22.75L314.12-22.75Q316.76-27.15 320.51-27.15L320.51-27.15ZM350.71-13.85Q350.71-13.4 350.56-11.3L350.56-11.3 336.91-11.3Q337.11-7.2 338.34-5.58 339.56-3.95 341.81-3.95L341.81-3.95Q343.36-3.95 344.61-4.48 345.86-5 347.31-6.15L347.31-6.15 349.86-2.65Q346.36 0.75 341.46 0.75L341.46 0.75Q336.26 0.75 333.49-2.85 330.71-6.45 330.71-13L330.71-13Q330.71-19.55 333.36-23.35 336.01-27.15 340.86-27.15L340.86-27.15Q345.51-27.15 348.11-23.78 350.71-20.4 350.71-13.85L350.71-13.85ZM344.71-15.3L344.71-15.65Q344.71-19.4 343.81-21.13 342.91-22.85 340.91-22.85L340.91-22.85Q339.06-22.85 338.09-21.18 337.11-19.5 336.91-15.3L336.91-15.3 344.71-15.3ZM367.36-27.15Q370.21-27.15 371.86-25.1 373.51-23.05 373.51-19.6L373.51-19.6 373.51 0 367.36 0 367.36-18.9Q367.36-20.8 366.83-21.63 366.31-22.45 365.31-22.45L365.31-22.45Q363.21-22.45 361.16-18.5L361.16-18.5 361.16 0 355.01 0 355.01-26.45 360.36-26.45 360.81-23Q362.16-25.1 363.68-26.13 365.21-27.15 367.36-27.15L367.36-27.15ZM390.21-5L392.36-1.2Q389.91 0.75 386.61 0.75L386.61 0.75Q383.16 0.75 381.36-1.23 379.56-3.2 379.56-6.6L379.56-6.6 379.56-22 376.46-22 376.46-26.45 379.56-26.45 379.56-32.3 385.71-33.05 385.71-26.45 390.71-26.45 390.11-22 385.71-22 385.71-6.6Q385.71-4.2 387.76-4.2L387.76-4.2Q388.41-4.2 388.91-4.38 389.41-4.55 390.21-5L390.21-5ZM413.65-35.25Q416.65-35.25 418.95-34.2 421.25-33.15 423.2-31.05L423.2-31.05 420.25-27.65Q418.7-29.05 417.23-29.75 415.75-30.45 414.1-30.45L414.1-30.45Q412.2-30.45 411.1-29.28 410-28.1 410-26.2L410-26.2Q410-24.3 411.15-23.1 412.3-21.9 415.65-20.6L415.65-20.6Q419.95-18.85 421.98-16.5 424-14.15 424-9.85L424-9.85Q424-6.9 422.65-4.48 421.3-2.05 418.78-0.65 416.25 0.75 412.9 0.75L412.9 0.75Q409.45 0.75 406.9-0.48 404.35-1.7 402.25-3.95L402.25-3.95 405.45-7.45Q407.25-5.85 408.9-5 410.55-4.15 412.5-4.15L412.5-4.15Q414.8-4.15 416.08-5.58 417.35-7 417.35-9.45L417.35-9.45Q417.35-11.6 416.23-12.98 415.1-14.35 412.05-15.5L412.05-15.5Q407.45-17.35 405.43-19.75 403.4-22.15 403.4-25.75L403.4-25.75Q403.4-28.5 404.73-30.65 406.05-32.8 408.4-34.02 410.75-35.25 413.65-35.25L413.65-35.25ZM446.65-26.45L439.65 0.1Q438.35 4.9 435.45 7.65 432.55 10.4 427.7 10.85L427.7 10.85 427 6.5Q430.15 5.85 431.73 4.42 433.3 3 434.2 0L434.2 0 431.9 0 425.2-26.45 431.45-26.45 435.85-4.1 440.55-26.45 446.65-26.45ZM456.9-27.15Q461.6-27.15 464.85-24.05L464.85-24.05 462.5-20.7Q461.1-21.7 459.85-22.2 458.6-22.7 457.3-22.7L457.3-22.7Q455.85-22.7 455.02-21.93 454.2-21.15 454.2-19.8L454.2-19.8Q454.2-18.45 455.12-17.63 456.05-16.8 458.85-15.7L458.85-15.7Q462.3-14.35 463.95-12.5 465.6-10.65 465.6-7.55L465.6-7.55Q465.6-3.7 462.9-1.48 460.2 0.75 456.05 0.75L456.05 0.75Q453.35 0.75 451.07-0.23 448.8-1.2 447.1-2.95L447.1-2.95 450.1-6.25Q452.9-3.8 455.8-3.8L455.8-3.8Q457.45-3.8 458.4-4.67 459.35-5.55 459.35-7.1L459.35-7.1Q459.35-8.25 458.95-8.97 458.55-9.7 457.55-10.33 456.55-10.95 454.55-11.7L454.55-11.7Q451.1-13.05 449.62-14.85 448.15-16.65 448.15-19.45L448.15-19.45Q448.15-22.8 450.52-24.98 452.9-27.15 456.9-27.15L456.9-27.15ZM480.6-5L482.75-1.2Q480.3 0.75 477 0.75L477 0.75Q473.55 0.75 471.75-1.23 469.95-3.2 469.95-6.6L469.95-6.6 469.95-22 466.85-22 466.85-26.45 469.95-26.45 469.95-32.3 476.1-33.05 476.1-26.45 481.1-26.45 480.5-22 476.1-22 476.1-6.6Q476.1-4.2 478.15-4.2L478.15-4.2Q478.8-4.2 479.3-4.38 479.8-4.55 480.6-5L480.6-5ZM504.14-13.85Q504.14-13.4 503.99-11.3L503.99-11.3 490.34-11.3Q490.54-7.2 491.77-5.58 492.99-3.95 495.24-3.95L495.24-3.95Q496.79-3.95 498.04-4.48 499.29-5 500.74-6.15L500.74-6.15 503.29-2.65Q499.79 0.75 494.89 0.75L494.89 0.75Q489.69 0.75 486.92-2.85 484.14-6.45 484.14-13L484.14-13Q484.14-19.55 486.79-23.35 489.44-27.15 494.29-27.15L494.29-27.15Q498.94-27.15 501.54-23.78 504.14-20.4 504.14-13.85L504.14-13.85ZM498.14-15.3L498.14-15.65Q498.14-19.4 497.24-21.13 496.34-22.85 494.34-22.85L494.34-22.85Q492.49-22.85 491.52-21.18 490.54-19.5 490.34-15.3L490.34-15.3 498.14-15.3ZM532.09-27.15Q534.74-27.15 536.34-25.1 537.94-23.05 537.94-19.6L537.94-19.6 537.94 0 531.89 0 531.89-18.95Q531.89-20.85 531.39-21.68 530.89-22.5 529.94-22.5L529.94-22.5Q527.99-22.5 526.19-18.8L526.19-18.8 526.19 0 520.19 0 520.19-18.95Q520.19-22.5 518.29-22.5L518.29-22.5Q516.24-22.5 514.49-18.8L514.49-18.8 514.49 0 508.44 0 508.44-26.45 513.79-26.45 514.19-23.05Q516.79-27.15 520.44-27.15L520.44-27.15Q522.29-27.15 523.64-26 524.99-24.85 525.69-22.75L525.69-22.75Q528.34-27.15 532.09-27.15L532.09-27.15Z" opacity="1" transform="matrix(1,0,0,1,0,0)" fill="#0080ff" class="slogan-text-1" data-fill-palette-color="secondary" id="text-1"></path></svg></g></svg></g></svg></g></svg></g><g transform="matrix(1,0,0,1,0,1.5534871335317888)"><svg viewBox="0 0 151.81387338239998 139.81533503176578" height="139.81533503176578" width="151.81387338239998"><g><svg xmlns="http://www.w3.org/2000/svg" data-name="Layer 1" viewBox="8.72213227718764 11.998567862844464 82.52365016133434 76.00143213715553" x="0" y="0" height="139.81533503176578" width="151.81387338239998" class="icon-icon-0" data-fill-palette-color="accent" id="icon-0"><path d="M52 88a2 2 0 0 1 0-4 7.48 7.48 0 0 0 5.57-2.7A9.49 9.49 0 0 0 59.95 74 8 8 0 0 0 53 67.07 7.62 7.62 0 0 0 48 68.15a5.55 5.55 0 0 0-2.16 7.34C46.77 77.18 48.46 78 51 78a2.26 2.26 0 0 0 2.58-2.1 2.63 2.63 0 0 0-2-2.93A2 2 0 1 1 52.4 69a6.61 6.61 0 0 1 5.17 7.25A6.24 6.24 0 0 1 51 82c-5.07 0-7.52-2.49-8.67-4.57a9.55 9.55 0 0 1 3.54-12.68 11.6 11.6 0 0 1 7.68-1.65A12.09 12.09 0 0 1 63.92 73.53 13.56 13.56 0 0 1 60.57 84 11.42 11.42 0 0 1 52 88Z" fill="#0080ff" data-fill-palette-color="accent"></path><path d="M74.51 68.5a2 2 0 0 1-1.6-3.2A8 8 0 0 0 62.42 53.62a2 2 0 0 1-2-3.44A12 12 0 0 1 76.11 67.7 2 2 0 0 1 74.51 68.5Z" fill="#0080ff" data-fill-palette-color="accent"></path><path d="M65.75 67.14a2 2 0 0 1-1.75-1 8 8 0 0 0-11.08-3 2 2 0 0 1-2-3.44A12 12 0 0 1 67.5 64.17a2 2 0 0 1-1.75 3Z" fill="#0080ff" data-fill-palette-color="accent"></path><path d="M47 68a2 2 0 0 1-1.41-3.42L70.31 39.95c0.28-0.28 0.55-0.61 0.84-1l0.07-0.08A12 12 0 0 1 91 40.78a2 2 0 1 1-3.51 1.92 8 8 0 0 0-13.21-1.27l-0.07 0.08a16 16 0 0 1-1.12 1.27L48.42 67.42A2 2 0 0 1 47 68Z" fill="#0080ff" data-fill-palette-color="accent"></path><path d="M74.51 68.5a2 2 0 0 1-1.45-3.38c0.27-0.29 6.69-7 9.13-9.13a9.32 9.32 0 0 0 3.18-5.12 2 2 0 1 1 3.93 0.76A13.14 13.14 0 0 1 84.82 59c-2.3 2-8.79 8.8-8.86 8.87A2 2 0 0 1 74.51 68.5Z" fill="#0080ff" data-fill-palette-color="accent"></path><path d="M58 86a2 2 0 0 1-1.46-3.37l16.5-17.5A2 2 0 0 1 76 67.87l-16.5 17.5A2 2 0 0 1 58 86Z" fill="#0080ff" data-fill-palette-color="accent"></path><path d="M66 67a2 2 0 0 1-1.41-3.41l23-23a2 2 0 0 1 2.83 2.83l-23 23A2 2 0 0 1 66 67Z" fill="#0080ff" data-fill-palette-color="accent"></path><path d="M74 78a2 2 0 0 1-2-2V67a2 2 0 0 1 4 0v9A2 2 0 0 1 74 78Z" fill="#0080ff" data-fill-palette-color="accent"></path><path d="M83 69H74a2 2 0 0 1 0-4h9a2 2 0 0 1 0 4Z" fill="#0080ff" data-fill-palette-color="accent"></path><path d="M39.87 45.14a2 2 0 0 1-0.89-0.21L9.83 30.36a2 2 0 0 1 0-3.58l9.2-4.6h0L39 12.21a2 2 0 0 1 1.79 0L69.9 26.78a2 2 0 0 1 0 3.58L40.76 44.93A2 2 0 0 1 39.87 45.14ZM15.19 28.57L39.87 40.91 64.54 28.57 39.87 16.24Z" fill="#0080ff" data-fill-palette-color="accent"></path><path d="M63 42a2 2 0 0 1-2-2V33a2 2 0 0 1 4 0v7A2 2 0 0 1 63 42Z" fill="#0080ff" data-fill-palette-color="accent"></path><path d="M40.31 59.71a2 2 0 0 1-0.89-0.21L16.11 47.85A2 2 0 0 1 15 46.06V33a2 2 0 0 1 4 0V44.82L40.31 55.48l12-6A2 2 0 0 1 54.14 53L41.21 59.5A2 2 0 0 1 40.31 59.71Z" fill="#0080ff" data-fill-palette-color="accent"></path><path d="M40 27a2 2 0 1 0 2 2 2 2 0 0 0-2-2Z" fill="#0080ff" data-fill-palette-color="accent"></path><path d="M25.3 37.86a2 2 0 0 1-0.9-3.79l8.74-4.37a2 2 0 1 1 1.79 3.58l-8.74 4.37A2 2 0 0 1 25.3 37.86Z" fill="#0080ff" data-fill-palette-color="accent"></path><path d="M25 67a2 2 0 0 1-2-2V63a2 2 0 0 1 4 0v2A2 2 0 0 1 25 67Z" fill="#0080ff" data-fill-palette-color="accent"></path><path d="M25 59a2 2 0 0 1-2-2V36a2 2 0 0 1 4 0V57A2 2 0 0 1 25 59Z" fill="#0080ff" data-fill-palette-color="accent"></path></svg></g></svg></g></svg></g></svg></g><path d="M218.359 75.951L218.359 16.171 3.502 16.171 3.502 231.029 218.359 231.029 218.359 171.249 213.477 171.249 213.477 226.146 8.384 226.146 8.384 21.054 213.477 21.054 213.477 75.951Z" fill="#0080ff" stroke="transparent" data-fill-palette-color="primary"></path></svg></g><defs></defs></svg><rect width="395.52" height="247.2" fill="none" stroke="none" visibility="hidden"></rect></g></svg></g></svg>